<svg id="visual" viewBox="0 0 900 600" width="900" height="600" xmlns="http://www.w3.org/2000/svg" xmlns:xlink="http://www.w3.org/1999/xlink" version="1.1"><rect x="0" y="0" width="900" height="600" fill="#001220"></rect><path d="M0 351L25 357.2C50 363.3 100 375.7 150 384C200 392.3 250 396.7 300 401C350 405.3 400 409.7 450 406.8C500 404 550 394 600 392.3C650 390.7 700 397.3 750 392.8C800 388.3 850 372.7 875 364.8L900 357L900 601L875 601C850 601 800 601 750 601C700 601 650 601 600 601C550 601 500 601 450 601C400 601 350 601 300 601C250 601 200 601 150 601C100 601 50 601 25 601L0 601Z" fill="#cca92c"></path><path d="M0 395L25 402.3C50 409.7 100 424.3 150 422.7C200 421 250 403 300 397.7C350 392.3 400 399.7 450 408.8C500 418 550 429 600 431.3C650 433.7 700 427.3 750 423.2C800 419 850 417 875 416L900 415L900 601L875 601C850 601 800 601 750 601C700 601 650 601 600 601C550 601 500 601 450 601C400 601 350 601 300 601C250 601 200 601 150 601C100 601 50 601 25 601L0 601Z" fill="#d79328"></path><path d="M0 445L25 447.7C50 450.3 100 455.7 150 450.8C200 446 250 431 300 429.8C350 428.7 400 441.3 450 444.5C500 447.7 550 441.3 600 440.5C650 439.7 700 444.3 750 447.2C800 450 850 451 875 451.5L900 452L900 601L875 601C850 601 800 601 750 601C700 601 650 601 600 601C550 601 500 601 450 601C400 601 350 601 300 601C250 601 200 601 150 601C100 601 50 601 25 601L0 601Z" fill="#de7d2e"></path><path d="M0 468L25 468.5C50 469 100 470 150 472.2C200 474.3 250 477.7 300 476C350 474.3 400 467.7 450 467.8C500 468 550 475 600 475.7C650 476.3 700 470.7 750 472C800 473.3 850 481.7 875 485.8L900 490L900 601L875 601C850 601 800 601 750 601C700 601 650 601 600 601C550 601 500 601 450 601C400 601 350 601 300 601C250 601 200 601 150 601C100 601 50 601 25 601L0 601Z" fill="#e0653a"></path><path d="M0 490L25 494.5C50 499 100 508 150 513C200 518 250 519 300 514.5C350 510 400 500 450 497.8C500 495.7 550 501.3 600 500.5C650 499.7 700 492.3 750 488.7C800 485 850 485 875 485L900 485L900 601L875 601C850 601 800 601 750 601C700 601 650 601 600 601C550 601 500 601 450 601C400 601 350 601 300 601C250 601 200 601 150 601C100 601 50 601 25 601L0 601Z" fill="#dd4d48"></path><path d="M0 531L25 531.3C50 531.7 100 532.3 150 530.5C200 528.7 250 524.3 300 522.8C350 521.3 400 522.7 450 525C500 527.3 550 530.7 600 531.8C650 533 700 532 750 533.5C800 535 850 539 875 541L900 543L900 601L875 601C850 601 800 601 750 601C700 601 650 601 600 601C550 601 500 601 450 601C400 601 350 601 300 601C250 601 200 601 150 601C100 601 50 601 25 601L0 601Z" fill="#d53758"></path><path d="M0 549L25 550.7C50 552.3 100 555.7 150 556C200 556.3 250 553.7 300 555C350 556.3 400 561.7 450 565.8C500 570 550 573 600 572.2C650 571.3 700 566.7 750 566C800 565.3 850 568.7 875 570.3L900 572L900 601L875 601C850 601 800 601 750 601C700 601 650 601 600 601C550 601 500 601 450 601C400 601 350 601 300 601C250 601 200 601 150 601C100 601 50 601 25 601L0 601Z" fill="#c62368"></path></svg>